<svg xmlns="http://www.w3.org/2000/svg" viewBox="0 0 64.126 5.645"><path d="M1.981 0c-.308 0-.617.071-.925.214C.747.354.493.538.294.767c-.196.226-.294.46-.294.7 0 .196.049.337.147.424.101.083.254.124.457.124a.469.469 0 00-.04-.09.765.765 0 01-.039-.294c0-.432.128-.77.384-1.01.26-.241.619-.362 1.078-.362.233 0 .408.072.525.215a.846.846 0 01.175.553c0 .204-.044.41-.13.621-.087.21-.207.388-.361.53a.81.81 0 01-.497.238L2.1.53l-.834.112-.768 3.59h.812l.345-1.608h.028c.324 0 .61-.074.858-.22.248-.151.438-.343.57-.576.135-.233.203-.472.203-.717 0-.203-.048-.388-.146-.553a1.008 1.008 0 00-.44-.407C2.526.051 2.278 0 1.98 0zm29.61.006c-.229 0-.44.07-.631.208-.188.14-.32.39-.395.751l-.684 3.223a4.537 4.537 0 00-.524.192.905.905 0 00-.322.254.628.628 0 00-.124.4.54.54 0 00.203.435.677.677 0 00.463.176c.23 0 .436-.07.62-.21.185-.135.315-.385.39-.75l.65-3.048h.417l.04-.226h-.413l.096-.446c.034-.169.089-.287.164-.355a.337.337 0 01.232-.108c.06 0 .11.017.152.05.041.035.062.082.062.142 0 .019-.004.07-.011.152h.265a1.41 1.41 0 00.017-.23.54.54 0 00-.203-.435.677.677 0 00-.463-.175zm26.688 0c-.23 0-.44.07-.632.208-.189.14-.32.39-.396.751l-.254 1.203c-.008.004-.015.008-.022.01a1.19 1.19 0 01-.43.097.227.227 0 01-.061-.006v-.006c0-.602-.24-.903-.723-.903-.353 0-.647.115-.88.345a1.993 1.993 0 00-.508.807 2.69 2.69 0 00-.158.852c0 .309.08.535.243.678.161.143.381.214.66.214.23 0 .442-.07.638-.21.195-.138.355-.336.48-.591.124-.256.2-.556.23-.898.172-.028.329-.075.477-.134l-.374 1.765a4.55 4.55 0 00-.525.192.905.905 0 00-.322.254.628.628 0 00-.124.4.54.54 0 00.203.435.677.677 0 00.463.176c.23 0 .436-.07.62-.21.185-.135.315-.385.39-.75l.65-3.048h.417l.04-.226h-.413l.096-.446c.034-.169.089-.287.164-.355a.337.337 0 01.231-.108c.06 0 .112.017.153.05.041.035.062.082.062.142 0 .019-.004.07-.011.152h.265c.01-.067.017-.144.017-.23a.54.54 0 00-.203-.435.677.677 0 00-.463-.175zm-36.627.05c-.309 0-.617.072-.926.215a2.18 2.18 0 00-.762.553c-.196.226-.293.46-.293.7 0 .196.049.337.146.423.102.083.255.125.458.125a.444.444 0 00-.04-.09.762.762 0 01-.04-.294c0-.301.068-.556.204-.762.139-.211.335-.367.587-.469l-.841 3.912a1.229 1.229 0 01.604.09c.158.064.303.141.435.232.135.094.297.216.485.367.252.199.459.346.62.44a.98.98 0 00.503.147c.155 0 .282-.08.384-.238.105-.158.173-.374.203-.649-.146.06-.305.09-.474.09-.188 0-.369-.035-.542-.107a5.916 5.916 0 01-.626-.299 7.273 7.273 0 00-.407-.209 1.938 1.938 0 00-.321-.113l.869-4.052a3.175 3.175 0 00-.226-.012zM4.64.282l-.836.113L3.2 3.223c-.03.15-.045.273-.045.367 0 .226.055.395.164.508.113.113.26.17.44.17.214 0 .431-.073.65-.216.101-.068.193-.167.278-.292a.696.696 0 00.698.507.795.795 0 00.474-.141c.136-.098.258-.224.367-.378.019.17.075.299.169.39.098.086.226.13.384.13a1.063 1.063 0 00.88-.505.686.686 0 00.176.29c.154.142.37.214.649.214.49 0 .915-.223 1.28-.661l-.135.627h.813l.294-1.394c.086-.071.162-.124.226-.158a.43.43 0 01.191-.05c.136 0 .203.09.203.27a.913.913 0 01-.022.209l-.045.22a1.405 1.405 0 00-.034.294c0 .207.06.367.18.48.12.109.298.163.531.163.316 0 .577-.168.786-.497a.682.682 0 00.174.282c.154.143.37.215.649.215.507 0 .945-.239 1.317-.708l-.002.031c0 .226.055.395.164.508.113.113.26.17.44.17.215 0 .43-.073.65-.216.099-.067.19-.164.273-.285.017.13.059.238.127.325.094.117.237.175.429.175.12 0 .231-.037.333-.113.101-.075.19-.222.265-.44a.455.455 0 01-.147.017c-.131 0-.197-.068-.197-.203a.95.95 0 01.028-.198l.361-1.693h.339L18 1.411h-.339c.064-.32.11-.533.136-.638.004-.026.022-.11.056-.254l-.835.113-.17.78h-.185l-.046.225h.187l-.339 1.586h-.023a.811.811 0 01-.203.361.433.433 0 01-.305.136c-.082 0-.143-.015-.18-.045-.034-.034-.051-.089-.051-.164 0-.064.007-.125.022-.181l.362-1.693h.338l.045-.226h-.338l.192-.892-.836.113-.169.78h-.186l-.046.225h.187l-.339 1.586a2.478 2.478 0 01-.48.429.924.924 0 01-.519.141c-.143 0-.246-.032-.31-.096-.064-.068-.096-.193-.096-.378 0-.037.003-.113.01-.226.227-.015.44-.075.639-.18.2-.11.36-.253.48-.43.12-.176.18-.37.18-.58 0-.362-.207-.543-.62-.543-.354 0-.646.115-.876.345-.23.226-.395.495-.496.807a2.793 2.793 0 00-.153.858v.011a1.19 1.19 0 01-.13.22.338.338 0 01-.27.119c-.147 0-.22-.07-.22-.21 0-.052.009-.112.028-.18l.062-.282a.938.938 0 00.022-.215.707.707 0 00-.158-.473c-.105-.125-.26-.187-.462-.187a.724.724 0 00-.187.023l1.13-.785h-.56l-1.09.858.424-1.987-.835.113-.603 2.828h-.001a2.479 2.479 0 01-.48.429.924.924 0 01-.519.141c-.143 0-.247-.032-.31-.096-.065-.068-.097-.193-.097-.378 0-.21.036-.448.108-.711.071-.264.163-.488.276-.672.113-.185.226-.277.339-.277.052 0 .092.02.119.062.026.042.039.098.039.17a.99.99 0 01-.068.333.356.356 0 00.198.068.263.263 0 00.215-.108.482.482 0 00.084-.305.505.505 0 00-.147-.372c-.094-.098-.254-.147-.48-.147-.35 0-.64.115-.869.345a2.052 2.052 0 00-.496.807 2.793 2.793 0 00-.153.858c0 .015.002.027.003.041a.918.918 0 01-.116.196c-.075.098-.165.147-.27.147-.155 0-.232-.081-.232-.243a.7.7 0 01.022-.181l.407-1.919h-.813l-.062.3v-.04a.243.243 0 00-.113-.21c-.075-.052-.19-.078-.344-.078a1.1 1.1 0 00-.79.322c-.219.21-.384.47-.497.779-.11.304-.164.596-.164.874l.002.04a.749.749 0 01-.132.186.434.434 0 01-.305.136c-.083 0-.142-.015-.18-.045-.034-.034-.05-.089-.05-.164a.7.7 0 01.021-.181zm35.723 0l-.835.113-.603 2.828h-.001a.81.81 0 01-.203.361.434.434 0 01-.305.136c-.083 0-.143-.015-.18-.045-.035-.034-.051-.089-.051-.164 0-.064.007-.125.022-.181l.361-1.693h.34l.044-.226h-.338l.191-.892-.835.113-.17.78h-.186l-.045.225h.186l-.338 1.586c-.03.15-.045.273-.045.367 0 .226.054.395.163.508.113.113.26.17.44.17.215 0 .432-.073.65-.216a.913.913 0 00.15-.13l-.066.311h.813l.384-1.811c.045-.155.106-.279.18-.373.076-.098.162-.147.26-.147.136 0 .203.096.203.288 0 .08-.013.183-.039.31-.026.129-.055.258-.085.39a5.66 5.66 0 00-.045.18c-.019.095-.038.193-.056.294a1.414 1.414 0 00-.028.265c0 .18.052.333.157.458.11.12.28.18.509.18.195 0 .383-.07.564-.209.082-.064.159-.158.232-.275a.678.678 0 00.169.27c.154.142.368.214.643.214.55 0 .875-.278.977-.835a1.365 1.365 0 01-.327.214.803.803 0 01-.34.085c-.233 0-.35-.156-.35-.469 0-.03.004-.086.012-.169.226-.015.438-.075.638-.18.2-.11.36-.253.48-.43.12-.176.18-.37.18-.58 0-.362-.207-.543-.62-.543-.354 0-.646.115-.875.345a1.97 1.97 0 00-.497.807 2.793 2.793 0 00-.153.858l.002.023a1.157 1.157 0 01-.126.208.338.338 0 01-.27.119c-.083 0-.142-.02-.176-.062a.27.27 0 01-.05-.176c0-.063.011-.15.034-.259.026-.113.054-.227.084-.344.049-.192.087-.354.113-.486a1.94 1.94 0 00.04-.367c0-.214-.057-.374-.17-.48a.644.644 0 00-.457-.157c-.252 0-.472.105-.66.316zm12.56.237l-.836.113-.17.78h-.186l-.045.225h.186l-.338 1.586h-.023a2.32 2.32 0 01-.407.282.85.85 0 00.023-.214c0-.102-.009-.265-.028-.491a38.104 38.104 0 01-.096-1.564l-.836.113c-.097.313-.2.604-.31.875-.109.267-.237.533-.384.796a.513.513 0 00-.208.203.521.521 0 00-.07.16 2.16 2.16 0 01-.32.269.924.924 0 01-.52.141c-.142 0-.246-.032-.31-.096-.064-.068-.095-.193-.095-.378 0-.037.003-.113.01-.226.227-.015.44-.075.639-.18.199-.11.359-.253.48-.43.12-.176.18-.37.18-.58 0-.362-.207-.543-.621-.543-.354 0-.645.115-.875.345-.23.226-.395.495-.497.807a2.793 2.793 0 00-.152.858c0 .308.077.536.231.682.155.143.371.215.65.215.454 0 .853-.19 1.2-.567a.767.767 0 00.07.195c.06.109.152.2.276.27a.944.944 0 00.457.102c.162 0 .322-.026.48-.079a.994.994 0 00.406-.26c.222-.127.42-.274.601-.44a1.312 1.312 0 00-.008.141c0 .192.046.347.136.463.094.117.237.175.429.175.12 0 .23-.037.333-.113.101-.075.19-.222.265-.44a.455.455 0 01-.147.017c-.132 0-.198-.068-.198-.203a.95.95 0 01.029-.198l.361-1.693h.339l.045-.226h-.339c.064-.32.11-.533.135-.638.004-.026.023-.11.057-.254zm11.08.717l-.836.113c-.098.313-.202.604-.31.875-.11.267-.238.533-.384.796a.514.514 0 00-.21.203.566.566 0 00-.09.321c0 .01.003.018.004.027-.004.004-.006.01-.01.013a.342.342 0 01-.27.136c-.083 0-.143-.015-.18-.045-.035-.034-.052-.089-.052-.164 0-.064.008-.125.023-.181l.406-1.919h-.812l-.384 1.812a1.012 1.012 0 01-.18.367.347.347 0 01-.272.13c-.112 0-.17-.078-.17-.232 0-.049.007-.102.018-.158l.406-1.919h-.813l-.384 1.812c-.03.15-.045.273-.045.367 0 .226.055.395.164.508.113.113.26.17.44.17.147 0 .29-.038.43-.114.142-.075.278-.216.406-.423.018.177.075.31.169.4.098.09.228.136.39.136a1.061 1.061 0 00.798-.395l.009.023c.06.109.152.2.276.27a.942.942 0 00.457.102c.178 0 .35-.032.52-.096a.98.98 0 00.434-.316.879.879 0 00.175-.564c0-.102-.01-.265-.028-.491a37.95 37.95 0 01-.096-1.564zm-37.931.124c-.35 0-.64.115-.87.345a2.053 2.053 0 00-.497.807 2.793 2.793 0 00-.152.858l.002.033a.816.816 0 01-.115.181.342.342 0 01-.27.136c-.083 0-.144-.015-.181-.045-.034-.034-.05-.089-.05-.164 0-.064.007-.125.022-.181l.406-1.919h-.813l-.384 1.812a1.013 1.013 0 01-.18.367.347.347 0 01-.271.13c-.113 0-.17-.078-.17-.232 0-.049.006-.102.018-.158l.406-1.919h-.813l-.384 1.812c-.03.15-.045.273-.045.367 0 .226.055.395.164.508.113.113.26.17.44.17.147 0 .29-.038.429-.114.143-.075.278-.216.406-.423.019.177.076.31.17.4.097.09.227.136.39.136a1.061 1.061 0 00.879-.504.686.686 0 00.176.29c.154.142.37.214.649.214.497 0 .928-.23 1.296-.681a.773.773 0 00.217.466c.154.143.368.215.643.215.55 0 .875-.278.976-.835a1.365 1.365 0 01-.327.214.8.8 0 01-.338.085c-.234 0-.35-.156-.35-.469 0-.03.003-.086.01-.169.226-.015.439-.075.638-.18.2-.11.36-.253.48-.43.12-.176.18-.37.18-.58 0-.362-.206-.543-.62-.543-.354 0-.645.115-.875.345-.23.226-.395.495-.496.807a2.866 2.866 0 00-.15.787c-.143.15-.28.273-.404.353a.924.924 0 01-.52.141c-.142 0-.245-.032-.31-.096-.063-.068-.095-.193-.095-.378 0-.21.036-.448.107-.711.072-.264.164-.488.277-.672.112-.185.225-.277.338-.277a.13.13 0 01.118.062c.027.042.04.098.04.17a.99.99 0 01-.067.333.356.356 0 00.197.068.262.262 0 00.214-.108.482.482 0 00.085-.305.505.505 0 00-.147-.372c-.094-.098-.253-.147-.48-.147zm6.987 0c-.353 0-.647.115-.88.345a1.993 1.993 0 00-.508.807 2.69 2.69 0 00-.158.852c0 .309.08.535.243.678.161.143.382.214.66.214.23 0 .442-.07.638-.21.195-.138.355-.336.48-.591.124-.256.2-.556.23-.898.172-.028.328-.075.475-.134l-.384 1.81h.813l.452-2.145c.086-.079.156-.133.209-.163a.387.387 0 01.203-.051c.03 0 .05.011.062.034a.512.512 0 01.034.107.522.522 0 00.062.175c.03.038.086.056.169.056a.374.374 0 00.299-.124.427.427 0 00.107-.287.443.443 0 00-.107-.3.344.344 0 00-.282-.124.67.67 0 00-.339.09c-.101.06-.216.147-.344.26l.074-.35h-.813l-.161.758-.02.01a1.19 1.19 0 01-.43.096.227.227 0 01-.061-.006v-.006c0-.602-.24-.903-.723-.903zm12.39.051l-.599 2.822h.813l.452-2.145c.087-.079.156-.133.209-.163a.387.387 0 01.203-.051c.03 0 .05.011.062.034a.51.51 0 01.034.107.522.522 0 00.062.175c.03.038.087.056.17.056a.374.374 0 00.299-.124.427.427 0 00.107-.287.442.442 0 00-.107-.3.344.344 0 00-.282-.124c-.12 0-.234.03-.34.09-.101.06-.216.147-.344.26l.074-.35zm-31.185.248c.094 0 .14.078.14.232a.88.88 0 01-.118.44.994.994 0 01-.305.344.729.729 0 01-.395.147 2.76 2.76 0 01.277-.807c.131-.237.265-.356.4-.356zm14.02 0c.094 0 .141.078.141.232a.91.91 0 01-.118.446.994.994 0 01-.305.344.7.7 0 01-.4.141c.063-.297.16-.564.287-.801.132-.241.263-.362.395-.362zm14.98 0c.095 0 .142.078.142.232a.91.91 0 01-.119.446.994.994 0 01-.305.344.701.701 0 01-.4.141c.063-.297.16-.564.287-.801.132-.241.264-.362.396-.362zm5.42 0c.093 0 .14.078.14.232a.88.88 0 01-.118.44.993.993 0 01-.305.344.73.73 0 01-.395.147 2.76 2.76 0 01.276-.807c.132-.237.266-.356.401-.356zm-15.58.046c.076 0 .128.024.159.073.03.045.048.13.056.254-.117.049-.175.15-.175.305 0 .135.051.214.153.237-.03.218-.08.418-.147.598a1.437 1.437 0 01-.237.424c-.09.101-.18.152-.271.152-.11 0-.184-.03-.226-.09-.041-.064-.062-.187-.062-.367 0-.192.036-.414.107-.666.072-.252.166-.469.282-.65.117-.18.237-.27.361-.27zm22.702 0c.076 0 .128.024.159.073.03.045.048.13.056.254-.117.049-.175.15-.175.305 0 .135.05.214.152.237-.03.218-.079.418-.147.598a1.437 1.437 0 01-.236.424c-.09.101-.181.152-.272.152-.109 0-.184-.03-.225-.09-.042-.064-.062-.187-.062-.367 0-.192.036-.414.107-.666.072-.252.166-.469.282-.65s.237-.27.361-.27zM6.26 1.733c.079 0 .137.024.175.073a.218.218 0 01.056.141l-.27 1.276a.703.703 0 01-.193.367c-.09.087-.182.13-.276.13a.287.287 0 01-.204-.08c-.052-.052-.079-.172-.079-.36 0-.189.035-.405.102-.65.068-.248.162-.459.282-.632.12-.177.256-.265.407-.265zm43.942.226c.01.146.035.434.073.863.023.203.034.362.034.474 0 .185-.047.318-.142.4a.51.51 0 01-.35.125c-.12 0-.208-.032-.264-.096-.053-.064-.08-.163-.08-.299.023.05.074.074.153.074.071 0 .13-.029.175-.085a.285.285 0 00.073-.192c0-.086-.043-.152-.13-.197.215-.414.367-.77.458-1.067zm12.999 0c.011.146.036.434.073.863.023.203.034.362.034.474 0 .185-.047.318-.141.4a.51.51 0 01-.35.125c-.12 0-.21-.032-.266-.096a.418.418 0 01-.07-.223l.016-.042c.028.026.07.04.128.04.071 0 .13-.029.175-.085a.285.285 0 00.073-.192c0-.086-.043-.152-.13-.197.215-.414.367-.77.458-1.067zm-44.992.575l-.102.446h1.135l.096-.446zm11.633 1.84l-.073.328c-.064.294-.172.44-.322.44a.226.226 0 01-.158-.062c-.045-.038-.068-.08-.068-.124 0-.143.055-.26.164-.35.105-.087.258-.164.457-.232zm26.687 0l-.074.328c-.063.294-.17.44-.321.44a.227.227 0 01-.158-.062c-.045-.038-.068-.08-.068-.124 0-.143.054-.26.164-.35.105-.087.257-.164.457-.232z"/></svg>