<svg xmlns="http://www.w3.org/2000/svg" viewBox="0 0 33.273 10.572"><path d="M3.61 0c-.833 0-1.522.127-2.065.38C1.009.636.618.97.37 1.388.124 1.796 0 2.25 0 2.752c0 .367.092.63.275.793.19.155.477.232.858.232a.867.867 0 00-.074-.168c-.05-.105-.075-.29-.075-.55 0-.798.172-1.352.518-1.663.353-.317.845-.476 1.473-.476h.127L1.598 7.928H3.12l1.461-6.795c.416.084.737.144.963.18.226.035.452.052.678.052.43 0 .756-.11.974-.328.219-.219.334-.557.348-1.016a3.246 3.246 0 01-1.227.223c-.352 0-.755-.04-1.207-.117A9.657 9.657 0 003.61 0zm4.17 2.54c-.664 0-1.216.215-1.653.646a3.735 3.735 0 00-.951 1.513c-.198.586-.297 1.118-.297 1.598 0 .578.152 1.001.455 1.27.303.268.716.402 1.238.402.43 0 .829-.13 1.196-.39.366-.262.667-.632.9-1.112.233-.48.377-1.042.434-1.684.32-.052.612-.14.888-.25l-.316 1.5a3.685 3.685 0 00-.086.688c0 .423.102.741.307.953.211.211.487.316.826.316.275 0 .543-.07.804-.21.269-.142.522-.408.762-.796.035.332.142.583.318.752.184.17.426.254.729.254.388 0 .773-.134 1.154-.402.086-.06.167-.138.246-.223l-.119.563h1.524l.847-4.024c.163-.148.292-.25.391-.306a.726.726 0 01.38-.094c.057 0 .097.02.118.062.021.043.043.11.064.202.029.14.066.25.116.328.056.07.163.105.318.105.24 0 .427-.077.56-.232a.8.8 0 00.202-.54.833.833 0 00-.201-.562c-.127-.155-.304-.232-.53-.232s-.437.057-.634.17c-.191.113-.407.274-.647.486l.139-.656h-1.524l-.72 3.4a1.792 1.792 0 01-.35.674.64.64 0 01-.508.254c-.155 0-.267-.028-.338-.084-.063-.064-.095-.166-.095-.307 0-.12.014-.232.043-.338l.761-3.6h-1.523l-.72 3.4c-.086.288-.198.517-.339.687a.65.65 0 01-.508.242c-.211 0-.318-.144-.318-.434 0-.091.01-.189.031-.295l.762-3.6h-1.523l-.301 1.423-.037.017c-.304.12-.572.18-.805.18a.442.442 0 01-.117-.01v-.012c0-1.128-.45-1.693-1.354-1.693zm19.28 0c-.663 0-1.208.215-1.638.646-.43.423-.741.928-.932 1.513-.19.586-.287 1.123-.287 1.61l.002.021a2.233 2.233 0 01-.244.412.634.634 0 01-.508.22c-.155 0-.264-.037-.328-.114a.505.505 0 01-.096-.328c0-.12.02-.282.063-.487.05-.211.104-.428.16-.646.092-.36.162-.663.21-.91.05-.254.075-.483.075-.688 0-.402-.107-.703-.318-.9-.212-.198-.496-.295-.856-.295-.472 0-.885.196-1.238.592l.115-.551h-1.523l-1.121 5.293h1.523l.719-3.399c.085-.289.199-.52.34-.697.14-.183.303-.275.486-.275.254 0 .38.179.38.539 0 .148-.024.342-.073.582-.05.24-.102.483-.159.73-.014.05-.043.162-.085.338-.036.176-.07.36-.106.55-.035.184-.053.35-.053.499 0 .339.1.625.297.857.205.226.523.338.953.338.367 0 .718-.13 1.057-.39.156-.121.303-.303.441-.528.073.209.18.38.323.516.289.268.694.402 1.216.402.952 0 1.774-.449 2.473-1.332 0 .017-.008.047-.008.063 0 .423.102.741.307.953.212.211.487.316.826.316.501 0 .931-.204 1.291-.613l-.105.465a8.304 8.304 0 00-.994.36c-.247.112-.449.268-.604.466-.155.198-.232.451-.232.762 0 .331.122.602.369.814.254.219.547.328.879.328.43 0 .82-.13 1.173-.39.36-.261.611-.731.752-1.409l1.291-6.138H31.74l-.72 3.398c-.085.29-.197.518-.338.688a.65.65 0 01-.508.242c-.212 0-.319-.155-.319-.465 0-.092.01-.179.032-.264l.761-3.6h-1.523l-.719 3.4c-.324.359-.625.626-.9.802-.268.176-.592.266-.973.266-.268 0-.462-.06-.582-.18-.12-.127-.181-.363-.181-.71 0-.07.007-.211.021-.423.423-.028.823-.14 1.197-.338.374-.204.673-.473.899-.805.225-.331.34-.694.34-1.09 0-.677-.39-1.017-1.166-1.017zm.086.562c.177 0 .264.144.264.433 0 .29-.074.563-.222.824-.142.261-.33.478-.57.647-.234.17-.48.261-.741.275.106-.564.278-1.069.518-1.513.246-.445.497-.666.751-.666zm-19.283.084c.141 0 .24.045.297.136.057.085.092.244.106.477-.22.092-.329.283-.329.572 0 .254.095.401.286.443-.057.41-.149.785-.276 1.123a2.69 2.69 0 01-.443.793c-.17.191-.339.288-.508.288-.205 0-.346-.057-.424-.17-.077-.12-.117-.35-.117-.688 0-.36.067-.777.201-1.25a4.49 4.49 0 01.53-1.217c.218-.338.444-.507.677-.507zm22.701 4.996l-.126.623c-.064.289-.151.498-.264.625-.113.134-.235.2-.361.2a.422.422 0 01-.295-.116c-.085-.07-.127-.148-.127-.233 0-.268.102-.487.306-.656s.494-.316.867-.443z"/></svg>